<svg xmlns="http://www.w3.org/2000/svg" xmlns:xlink="http://www.w3.org/1999/xlink" viewBox="0,0,256,256" width="150px" height="150px" fill-rule="nonzero"><g fill="#f33737" fill-rule="nonzero" stroke="none" stroke-width="1" stroke-linecap="butt" stroke-linejoin="miter" stroke-miterlimit="10" stroke-dasharray="" stroke-dashoffset="0" font-family="none" font-weight="none" font-size="none" text-anchor="none" style="mix-blend-mode: normal"><g transform="scale(5.12,5.12)"><path d="M27.4375,2c-0.17187,0.03125 -0.33594,0.10547 -0.46875,0.21875l-9.1875,3.375c-0.125,0.03906 -0.24219,0.10156 -0.34375,0.1875l-9.0625,8.46875c-0.07422,0.0625 -0.13672,0.13672 -0.1875,0.21875l-5.9375,10.1875c-0.03516,0.05078 -0.06641,0.10156 -0.09375,0.15625l-0.03125,0.0625c-0.01172,0.01172 -0.01953,0.01953 -0.03125,0.03125c0,0.01953 0,0.04297 0,0.0625c-0.01172,0.01953 -0.02344,0.04297 -0.03125,0.0625c-0.01172,0.01172 -0.01953,0.01953 -0.03125,0.03125c0,0.01172 0,0.01953 0,0.03125c-0.01172,0.01953 -0.02344,0.04297 -0.03125,0.0625c0,0.01172 0,0.01953 0,0.03125c0,0.01953 0,0.04297 0,0.0625c0,0.01172 0,0.01953 0,0.03125c0,0.01953 0,0.04297 0,0.0625c0,0.01172 0,0.01953 0,0.03125c-0.00781,0.0625 -0.00781,0.125 0,0.1875v12.375c-0.00391,0.04297 -0.00391,0.08203 0,0.125v0.03125c-0.00391,0.09375 0.00781,0.19141 0.03125,0.28125c0.20313,4.35547 1.98047,6.90625 4.125,8.15625c2.03906,1.19141 4.22656,1.30469 5.59375,1.34375c0.10547,0.00391 0.25,-0.00391 0.34375,0h0.09375c0.05469,-0.00781 0.10547,-0.01562 0.15625,-0.03125h0.03125l32.03125,-2.1875c0.07422,0.00781 0.14453,0.00781 0.21875,0c0.10938,-0.01562 0.21484,-0.04687 0.3125,-0.09375c0.06641,-0.03516 0.12891,-0.07812 0.1875,-0.125c0.01172,0 0.01953,0 0.03125,0c0.30469,-0.23437 0.45313,-0.62109 0.375,-1l2.375,-31.25c0.00391,-0.01953 -0.00391,-0.04297 0,-0.0625l0.09375,-1.1875c0.01563,-0.13672 0.00781,-0.27344 -0.03125,-0.40625c0,-1.01562 -0.09375,-2.02344 -0.34375,-3c-0.76953,-2.99219 -3.08594,-5.57422 -7.40625,-6.34375c-0.0625,-0.01562 -0.125,-0.02734 -0.1875,-0.03125c-0.01953,0 -0.04297,0 -0.0625,0l-12.21875,-0.15625c-0.07422,-0.00781 -0.14453,-0.00781 -0.21875,0c-0.03125,0 -0.0625,0 -0.09375,0zM30.96875,4.03125l5.21875,0.0625l-2.875,1.59375zM27.59375,4.125l4.5625,3.21875l-3.25,10.34375l-12.28125,11.4375l-10.03125,2.25l-2.46875,-5.9375l5.71875,-9.84375l8.8125,-8.1875zM40.09375,4.21875c3.52344,0.69922 4.99219,2.48438 5.59375,4.8125c0.50391,1.95703 0.20313,4.30078 -0.34375,6.46875l-10.34375,-8.46875zM33.84375,8.65625l9.4375,7.75l-12.125,0.8125zM44.46875,18.3125c-2.08984,5.64844 -5.73047,10.44922 -9.875,14.96875l-3.5625,-14.09375zM29.21875,20.125l3.46875,13.84375l-13.625,-4.40625zM45.21875,21.90625l-1.5625,20.625l-8.09375,-7.21875c3.77344,-4.03906 7.26172,-8.37891 9.65625,-13.40625zM4,30.40625l0.90625,2.09375l-0.90625,1.65625zM17.84375,31.28125l14.21875,4.5625c-5.30078,4.76953 -11.14453,8.53516 -18.5,9.65625zM15.71875,31.375l-3.78125,12.5625l-4.5625,-10.6875zM5.875,34.84375l4.65625,10.90625c-1.10156,-0.10937 -2.29687,-0.33984 -3.375,-0.96875c-1.60547,-0.9375 -2.96094,-2.66406 -3.125,-6.5625zM34.09375,36.71875l8.03125,7.125l-20.125,1.34375c4.53906,-2.07812 8.46484,-5.12891 12.09375,-8.46875z"></path></g></g></svg>